<svg xmlns="http://www.w3.org/2000/svg" width="224.385" height="40" viewBox="0 0 224.385 40"><g transform="translate(0.034 -0.1)"><path d="M19.241,11.9H11.193a8.714,8.714,0,0,0-7.988,6.021c-.358,1.371-1.073,4.173-1.55,6.2-.6,2.623-1.431,7.034-1.61,7.869a4.927,4.927,0,0,0,5.186,5.961h8.107a8.679,8.679,0,0,0,7.988-6.319c.06-.119,1.013-5.127,1.55-7.452.417-1.908,1.49-5.9,1.49-5.9A4.972,4.972,0,0,0,19.241,11.9Zm-1.967,6.855S16.32,22.332,15.9,24.18c-.537,2.325-1.133,5.306-1.431,6.975A2.878,2.878,0,0,1,11.73,33.3h-2.8A1.684,1.684,0,0,1,7.2,31.155q.626-3.487,1.431-6.975c.417-1.848.894-3.636,1.371-5.484a2.992,2.992,0,0,1,2.742-2.146h2.742A1.741,1.741,0,0,1,17.274,18.755ZM92.8,11.9H79.092a.719.719,0,0,0-.656.477c-1.192,3.875-2.265,7.809-3.219,11.744-1.013,4.531-1.848,8.942-2.444,13.353a.439.439,0,0,0,.477.477h5.842a.77.77,0,0,0,.715-.537c.6-4.352,1.431-8.763,2.444-13.234.417-1.848.894-3.636,1.371-5.425a2.992,2.992,0,0,1,2.742-2.146h2.742a1.683,1.683,0,0,1,1.729,2.206s-.954,3.577-1.371,5.425c-1.013,4.531-1.848,8.942-2.444,13.353a.439.439,0,0,0,.477.477h5.842a.77.77,0,0,0,.715-.537c.477-3.517,1.431-8.763,2.444-13.234.417-1.908,1.192-4.888,1.431-5.782A5.086,5.086,0,0,0,92.8,11.9Zm-24.5,0H60.254a8.714,8.714,0,0,0-7.988,6.021c-.238.894-1.073,4.113-1.55,6.2-.6,2.623-1.133,5.246-1.61,7.809a4.946,4.946,0,0,0,5.186,6.021H65.858a3,3,0,0,0,2.8-2.325c.119-.656.179-1.311.3-1.788a.418.418,0,0,0-.417-.537H57.989a1.684,1.684,0,0,1-1.729-2.146l.358-1.788a.77.77,0,0,1,.715-.537h6.975a8.619,8.619,0,0,0,8.048-6.319c.3-1.371.656-2.5,1.073-4.232A5.01,5.01,0,0,0,68.3,11.9ZM65.441,21.975a3.065,3.065,0,0,1-2.8,2.146H57.691c.417-1.848.894-3.636,1.371-5.484A2.992,2.992,0,0,1,61.8,16.49h2.742A1.683,1.683,0,0,1,66.275,18.7C66.275,18.755,65.739,20.9,65.441,21.975ZM43.742,11.9H30.031a.835.835,0,0,0-.715.537c-1.192,3.875-2.265,7.75-3.159,11.684A109.676,109.676,0,0,0,23.593,39.2c-.3,3.458,1.848,5.663,5.544,5.663a.787.787,0,0,0,.835-.656c.119-1.371.417-4.531.6-5.663a.756.756,0,0,1,.715-.6H37.9a8.612,8.612,0,0,0,8.048-6.736c.417-2.325.894-4.709,1.431-7.094.417-1.908,1.073-4.232,1.49-5.9C49.822,14.761,47.438,11.9,43.742,11.9ZM40.4,24.121c-.537,2.325-1.431,6.975-1.431,6.975a2.878,2.878,0,0,1-2.742,2.146H31.342c.537-3.04,1.133-6.08,1.848-9.18.6-2.563,1.252-5.067,1.967-7.571h4.948A1.683,1.683,0,0,1,41.834,18.7C41.774,18.755,40.821,22.332,40.4,24.121Z" transform="translate(0 -4.766)" fill="#fff"/><path d="M185.32,7.134h-9.9a8.683,8.683,0,0,0-8.107,5.842,12.946,12.946,0,0,1-.417,1.431c-.715,2.8.536,4.829,3.1,6.021l6.8,3.159a1.52,1.52,0,0,1,.835,1.61c-.06.3-.238,1.192-.238,1.252a2.878,2.878,0,0,1-2.742,2.146H164.515a.849.849,0,0,0-.775.537c-.119.656-.358,2.146-.358,2.146a1.659,1.659,0,0,0,1.788,1.967H176.2a8.579,8.579,0,0,0,8.107-6.617c.119-.477.3-1.61.3-1.61a5.116,5.116,0,0,0-3.219-5.723l-6.677-3.159a1.377,1.377,0,0,1-.835-1.61c.06-.238.119-.417.179-.656a2.992,2.992,0,0,1,2.742-2.146h9a.77.77,0,0,0,.715-.537c.119-.477.6-1.908.6-1.908A1.721,1.721,0,0,0,185.32,7.134Zm67.243,4.531L253.7,7.671c.119-.3-.119-.537-.477-.537h-5.425a8.775,8.775,0,0,0-7.988,6.021c-.537,1.788-1.133,4.232-1.55,6.259-1.013,4.471-1.848,8.942-2.444,13.294,0,.3.119.537.477.537h5.842a.651.651,0,0,0,.715-.537c.6-4.352,1.431-8.763,2.444-13.234.358-1.669,1.252-4.948,1.252-4.948a2.9,2.9,0,0,1,2.742-2.206h2.623A.91.91,0,0,0,252.563,11.665Zm15.618.06c.358-1.371.715-2.683,1.133-4.054a.432.432,0,0,0-.477-.537h-4.054a.456.456,0,0,1-.477-.537c.477-1.55,1.788-5.365,2.027-5.961A.4.4,0,0,0,265.916.1h-.358c-3.517,0-6.438,1.371-7.988,5.842-3.159,8.823-5.6,22.414-6.2,26.766a.432.432,0,0,0,.477.537h5.842a.77.77,0,0,0,.715-.537h0c.6-4.352,1.431-8.763,2.444-13.234q.536-2.5,1.252-5.007a2.917,2.917,0,0,1,2.742-2.146h2.623A.841.841,0,0,0,268.181,11.724Zm-61.4-4.59H193.07a.835.835,0,0,0-.715.537c-1.192,3.875-2.265,7.75-3.159,11.684a109.68,109.68,0,0,0-2.563,15.082c-.3,3.458,1.848,5.663,5.544,5.663a.787.787,0,0,0,.835-.656c.119-1.371.417-4.531.6-5.663a.756.756,0,0,1,.715-.6h6.617a8.612,8.612,0,0,0,8.048-6.736c.417-2.325.894-4.709,1.431-7.094.417-1.908,1.073-4.232,1.49-5.9C212.8,10,210.417,7.134,206.781,7.134Zm-3.338,12.221c-.537,2.325-1.431,6.975-1.431,6.975a2.878,2.878,0,0,1-2.742,2.146h-4.888c.477-3.04,1.133-6.08,1.848-9.18.6-2.563,1.252-5.067,1.967-7.571h4.888a1.683,1.683,0,0,1,1.729,2.206C204.754,13.99,203.86,17.566,203.442,19.355Zm27.9-12.221h-8.048a8.714,8.714,0,0,0-7.988,6.021c-.358,1.371-1.073,4.113-1.55,6.2-.6,2.623-1.431,7.034-1.61,7.869a4.927,4.927,0,0,0,5.186,5.961h8.107a8.679,8.679,0,0,0,7.988-6.319c.06-.119,1.013-5.127,1.55-7.452.417-1.908,1.49-5.9,1.49-5.9A5,5,0,0,0,231.341,7.134Zm-2.027,6.855s-.954,3.577-1.371,5.425c-.537,2.325-1.133,5.306-1.431,6.975a2.878,2.878,0,0,1-2.742,2.146h-2.742a1.684,1.684,0,0,1-1.729-2.146q.626-3.487,1.431-6.975c.417-1.848.894-3.636,1.371-5.484a2.992,2.992,0,0,1,2.742-2.146h2.742A1.705,1.705,0,0,1,229.314,13.99Zm59.2-6.855h-9.9a8.683,8.683,0,0,0-8.107,5.842,12.949,12.949,0,0,1-.417,1.431c-.715,2.8.536,4.829,3.1,6.021l6.8,3.159a1.52,1.52,0,0,1,.835,1.61c-.06.3-.238,1.192-.238,1.252a2.878,2.878,0,0,1-2.742,2.146H267.7a.849.849,0,0,0-.775.537c-.119.656-.358,2.146-.358,2.146a1.659,1.659,0,0,0,1.788,1.967h11.028a8.579,8.579,0,0,0,8.107-6.617c.119-.477.3-1.61.3-1.61a5.116,5.116,0,0,0-3.219-5.723L277.9,16.136a1.377,1.377,0,0,1-.835-1.61c.06-.238.119-.417.179-.656a2.992,2.992,0,0,1,2.742-2.146h9a.77.77,0,0,0,.715-.537c.119-.477.6-1.908.6-1.908A1.721,1.721,0,0,0,288.509,7.134Z" transform="translate(-65.99 0)" fill="#ffe600"/></g></svg>